<?xml version="1.0" encoding="UTF-8"?>
<!DOCTYPE svg PUBLIC "-//W3C//DTD SVG 1.1//EN" "http://www.w3.org/Graphics/SVG/1.1/DTD/svg11.dtd">
<!-- Creator: CorelDRAW -->
<svg xmlns="http://www.w3.org/2000/svg" xmlns:xlink="http://www.w3.org/1999/xlink" xml:space="preserve" width="80mm" height="120mm" style="shape-rendering:geometricPrecision; text-rendering:geometricPrecision; image-rendering:optimizeQuality; fill-rule:evenodd; clip-rule:evenodd"
viewBox="0 0 80 120"
 xmlns:svg="http://www.w3.org/2000/svg"
 version="1.0">
 <defs>
  <style type="text/css">
   <![CDATA[
    .fil0 {fill:#131516}
   ]]>
  </style>
 </defs>
 <g id="Layer_x0020_1">
  <metadata id="CorelCorpID_0Corel-Layer"/>
  <path id="path2618" class="fil0" d="M40 -0.0001c-4.8344,4.8266 -4.9007,10.8715 -4.9007,11.9852 0,6.4028 0.9272,17.7771 0.9272,30.2251 0,19.4875 -10.3751,32.4522 -10.3751,32.4522 0,0 -0.1767,0.3182 -2.2959,0.3182 -2.1192,0 -6.7108,-1.551 -6.7108,-6.1244 0,-4.5738 5.6069,-5.8461 6.6665,-5.8461 1.0597,0 1.5894,0.1589 1.5894,0.1589 0,0 -1.0595,-8.3518 -3.4436,-27.2027 -4.6358,-20.1633 -21.457,-27.2025 -21.457,-27.2025l0 87.2154 22.4284 0c0,0 1.6336,12.2888 13.5981,20.1236 0,0 3.7968,2.9427 3.9735,3.8972 0.1767,-0.9545 3.9736,-3.8972 3.9736,-3.8972 11.9644,-7.8345 13.598,-20.1236 13.598,-20.1236l22.4284 0 0 -87.2154c0,0 -16.8211,7.0393 -21.457,27.2026 -2.3841,18.8509 -3.4436,27.2026 -3.4436,27.2026 0,0 0.5297,-0.1589 1.5894,-0.1589 1.0596,0 6.6665,1.2725 6.6665,5.8461 0,4.5737 -4.5916,6.1247 -6.7108,6.1247 -2.1192,0 -2.2959,-0.3183 -2.2959,-0.3183 0,0 -10.375,-12.9649 -10.375,-32.4522 0,-12.4481 0.9271,-23.8223 0.9271,-30.2252 0,-1.1136 -0.0662,-7.1585 -4.9007,-11.9852l0 -0.0001 0 0zm33.2008 21.6095c0,0 -6.0924,6.8403 -7.8586,14.8739 -0.9713,7.3972 -2.9138,21.794 -2.9138,21.794 0,0 5.8277,2.227 7.1522,7.7152 1.1479,0 3.6202,0 3.6202,0l0 -44.3831zm-16.2472 59.4956c1.4128,0 10.7285,-1.2326 12.627,-9.0675l3.6202 0 0 18.0556 -14.8344 0c0,0 0,-4.9315 -1.4128,-8.9881zm-5.5186 8.9087l-8.0795 0c0,0 0.2607,-6.4356 7.0198,-7.3972 0.5738,1.6703 1.0597,3.6985 1.0597,7.3972zm-7.9913 5.9655l6.8875 0c0,0 -0.7508,7.1981 -6.8875,12.3284 0,-3.261 0,-12.3284 0,-12.3284zm-36.6445 -74.3699c0,0 6.0924,6.8403 7.8586,14.8739 0.9713,7.3972 2.9138,21.7941 2.9138,21.7941 0,0 -5.8277,2.2268 -7.1522,7.7151 -1.1479,0 -3.6202,0 -3.6202,0l0 -44.3831zm16.2472 59.4957c-1.4128,0 -10.7285,-1.2326 -12.627,-9.0675l-3.6202 0 0 18.0554 14.8344 0c0,0 0,-4.9313 1.4128,-8.9879zm5.5186 8.9087l8.0795 0c0,0 -0.2607,-6.4357 -7.0198,-7.3972 -0.5738,1.6703 -1.0597,3.6985 -1.0597,7.3972zm7.9913 5.9655l-6.8874 0c0,0 0.7507,7.1981 6.8874,12.3284 0,-3.261 0,-12.3284 0,-12.3284zm3.4437 -35.5543c0,0 -2.9578,9.8628 -7.6821,16.3055 1.7658,1.0339 7.6821,4.6531 7.6821,4.6531 0,0 5.9163,-3.6192 7.6821,-4.6531 -4.7243,-6.4427 -7.6821,-16.3055 -7.6821,-16.3055z"/>
 </g>
</svg>
