<?xml version="1.0" encoding="UTF-8"?> <!-- Generator: Adobe Illustrator 21.0.0, SVG Export Plug-In . SVG Version: 6.00 Build 0) --> <svg xmlns="http://www.w3.org/2000/svg" xmlns:xlink="http://www.w3.org/1999/xlink" id="Layer_1" x="0px" y="0px" viewBox="0 0 24 24" xml:space="preserve"> <g> <circle fill="none" stroke="#303C42" stroke-linecap="round" stroke-linejoin="round" stroke-miterlimit="10" cx="20" cy="3" r="1.5"></circle> <path fill="none" stroke="#303C42" stroke-linecap="round" stroke-linejoin="round" stroke-miterlimit="10" d=" M18.770834,2.1666718C18.770834,2.1666718,16.125,0.5,12.5,0.5S5.9358234,4.4149933,5.5399899,5.5399933"></path> <path fill="none" stroke="#303C42" stroke-linecap="round" stroke-linejoin="round" stroke-miterlimit="10" d="M18.5,3 c0,0-3.557292,0.1666718-0.890625,2.5625"></path> <path fill="none" stroke="#303C42" stroke-linecap="round" stroke-linejoin="round" stroke-miterlimit="10" d="M5.9415183,5.5 h11.1169624c0.8608608,0,1.6251392,0.5508575,1.8973675,1.3675385l0.1054096,0.3162384 C19.2771015,7.8312988,18.7951317,8.5,18.1125736,8.5H4.8874259c-0.6825576,0-1.1645269-0.6687012-0.9486833-1.3162231 l0.1054091-0.3162384C4.31638,6.0508575,5.0806575,5.5,5.9415183,5.5z"></path> <path fill="none" stroke="#303C42" stroke-linecap="round" stroke-linejoin="round" stroke-miterlimit="10" d="M5,8.5 c0,0-2.5,1.484375-2.5,3.5s1,2.5,1,2.5s-0.9921875,2.0078125,0,3s2,1,2,1s1.984375,5.875,6,4c0,0.765625-1,1-1,1 c4.515625,0,7-5,7-5s1.0078125-0.0078125,2-1s0-3,0-3s1-0.484375,1-2.5S18,8.5,18,8.5"></path> <path fill="none" stroke="#303C42" stroke-linecap="round" stroke-linejoin="round" stroke-miterlimit="10" d="M17.5,8.5 c0,0,1,1.875,1,3.5s-1.0625,2.5-2.5,2.5s-2.25-1-4.5-1s-3.0625038,1-4.5,1c-1.4375038,0-2.5-0.875-2.5-2.5s1-3.5,1-3.5"></path> <path fill="none" stroke="#303C42" stroke-linecap="round" stroke-linejoin="round" stroke-miterlimit="10" d="M9.5,15.5 c0,0,0.708333,1,2,1s2-1,2-1"></path> <circle fill="none" stroke="#303C42" stroke-linecap="round" stroke-linejoin="round" stroke-miterlimit="10" cx="9" cy="11" r="0.5"></circle> <circle fill="none" stroke="#303C42" stroke-linecap="round" stroke-linejoin="round" stroke-miterlimit="10" cx="14" cy="11" r="0.5"></circle> </g> </svg> 