<?xml version="1.0" encoding="utf-8"?>
<!-- Svg Vector Icons : http://www.onlinewebfonts.com/icon -->
<!DOCTYPE svg PUBLIC "-//W3C//DTD SVG 1.1//EN" "http://www.w3.org/Graphics/SVG/1.1/DTD/svg11.dtd">
<svg version="1.1" xmlns="http://www.w3.org/2000/svg" xmlns:xlink="http://www.w3.org/1999/xlink" x="0px" y="0px" viewBox="0 0 1000 1000" enable-background="new 0 0 1000 1000" xml:space="preserve">
<metadata> Svg Vector Icons : http://www.onlinewebfonts.com/icon </metadata>
<g><g transform="translate(0.000000,511.000000) scale(0.100000,-0.100000)"><path d="M4823,4995.4c-149.7-39.3-270-110.5-378-228.3c-120.3-130.1-159.6-201.3-213.6-390.3l-39.3-139.9l-191.5,90.8c-166.9,78.6-211.1,90.8-373.1,88.4c-441.9,0-770.8-328.9-770.8-770.8c-2.5-162,9.8-206.2,88.4-373.1l90.8-189l-139.9-39.3c-191.5-56.5-294.6-112.9-407.5-225.8c-292.1-287.2-301.9-780.6-19.6-1070.3c115.4-120.3,250.4-198.8,427.1-250.4l139.9-39.3l-90.8-189c-78.6-166.9-90.8-211.1-88.4-373.1c0-441.9,328.9-770.8,770.8-770.8c162-2.5,206.2,9.8,373.1,88.4l189,90.8l39.3-139.9c58.9-196.4,115.4-297,238.1-414.9C4621.7-402.6,4778.8-464,5002.2-464c375.6,0,657.9,230.7,773.3,628.4l39.3,139.9l189-90.8c166.9-78.6,211.1-90.8,373.1-88.4c441.9,0,770.8,328.9,770.8,770.8c2.5,162-9.8,206.2-85.9,370.7l-90.8,186.6l139.9,44.2c201.3,61.4,297,117.8,412.4,238.1c152.2,154.6,213.6,311.7,213.6,535.1c0,378-228.3,657.9-628.4,773.3l-139.9,39.3l90.8,189c78.6,166.9,90.8,211.1,88.4,373.1c0,441.9-328.9,770.8-770.8,770.8c-162,2.5-206.2-9.8-373.1-88.4l-189-90.8l-39.3,139.9c-22.1,76.1-61.4,176.7-85.9,225.8c-63.8,122.7-238.1,284.8-373.1,343.7C5183.9,5005.2,4953.1,5027.3,4823,4995.4z M5422,3159.2c196.4-93.3,390.3-292.1,483.6-488.5c56.5-125.2,66.3-171.8,66.3-400.1c0-228.3-7.4-272.5-66.3-400.1c-93.3-196.4-287.2-392.8-483.6-491c-149.7-73.6-176.7-78.6-419.8-78.6c-228.3,0-274.9,9.8-400.1,66.3c-196.4,93.3-395.2,287.2-491,483.6c-73.6,152.2-78.6,179.2-78.6,419.8c0,240.6,4.9,267.6,78.6,419.8c127.6,260.2,380.5,468.9,657.9,540c41.7,12.3,166.9,17.2,282.3,12.3C5228.1,3237.8,5284.5,3225.5,5422,3159.2z"/><path d="M4631.5-893.6c-85.9-108-338.8-643.2-378-800.3c-76.1-299.5-34.4-557.2,171.8-1080.1c159.6-402.6,191.5-515.5,191.5-699.6c0-132.6-12.3-186.6-81-319.1c-93.3-184.1-235.7-400.1-382.9-584.2c-127.6-154.6-144.8-208.7-108-299.5c39.3-93.3,147.3-137.5,240.6-100.6c139.9,58.9,584.2,709.4,667.7,979.4c51.6,164.5,63.8,417.3,27,574.4l-22.1,88.4l223.4,78.6c301.9,105.5,491,203.7,623.5,326.5c125.2,112.9,424.7,456.6,424.7,483.6c0,9.8-68.7,0-152.2-24.5c-85.9-24.6-282.3-73.6-436.9-110.5c-486-112.9-670.2-225.8-702.1-432c-9.8-51.6-22.1-95.7-31.9-95.7c-19.6,0-238.1,552.3-274.9,694.7c-14.7,63.8-22.1,193.9-17.2,292.1c7.4,154.6,27,216,135,441.9c68.7,142.4,176.7,338.8,238.1,434.5l112.9,174.3h-117.8c-63.8,0-157.1,9.8-208.7,22.1C4692.9-829.8,4678.2-834.7,4631.5-893.6z"/><path d="M6244.3-2560.4c-309.3-378-513-522.9-967.2-682.4l-228.3-78.6l68.8-63.8c98.2-90.8,297-144.8,456.6-125.2c164.5,22.1,341.2,90.8,446.8,169.4c108,83.4,265.1,402.6,333.8,672.6C6428.4-2371.4,6413.7-2356.7,6244.3-2560.4z"/></g></g>
</svg>