<?xml version="1.0" encoding="utf-8"?>
<!-- Svg Vector Icons : http://www.onlinewebfonts.com/icon -->
<!DOCTYPE svg PUBLIC "-//W3C//DTD SVG 1.1//EN" "http://www.w3.org/Graphics/SVG/1.1/DTD/svg11.dtd">
<svg version="1.1" xmlns="http://www.w3.org/2000/svg" xmlns:xlink="http://www.w3.org/1999/xlink" x="0px" y="0px" viewBox="0 0 1000 1000" enable-background="new 0 0 1000 1000" xml:space="preserve">
<metadata> Svg Vector Icons : http://www.onlinewebfonts.com/icon </metadata>
<g><g transform="translate(0.000000,512.000000) scale(0.100000,-0.100000)"><path d="M4908,5014.2c-97.8-40.3-218.5-138-264.5-216.6l-51.8-88.2l-5.7-542.5l-5.8-540.6l-46-30.7c-53.7-34.5-42.2-40.3-350.8,134.2c-272.2,155.3-410.3,162.9-563.6,34.5c-162.9-138-170.6-429.4-13.4-573.2c24.9-23,214.7-138,419.8-256.9c410.2-235.8,446.7-260.7,500.4-368.1c32.6-63.3,36.4-107.4,32.6-381.5l-5.8-310.6l-49.8-28.8c-47.9-26.8-61.3-21.1-322.1,120.8c-404.5,218.5-429.4,205.1-412.2-218.5c17.3-416-21.1-440.9-371.9-237.7c-410.2,235.8-396.8,207-396.8,870.3c0,504.2,0,508-46,590.4c-28.8,46-86.3,105.4-138,140c-157.2,101.6-312.5,97.8-433.3-7.7c-120.8-105.4-139.9-174.4-139.9-504.2c0-255-3.8-293.3-34.5-320.1c-19.2-19.2-49.8-32.6-69-32.6c-17.3,0-218.5,109.3-448.6,243.5c-460.1,270.3-534.9,302.9-642.2,285.6c-103.5-17.3-249.2-93.9-306.7-164.9c-122.7-143.8-118.9-402.6,7.7-544.4c34.5-42.2,201.3-143.8,454.3-281.8c481.2-260.7,502.3-276.1,502.3-333.6c0-53.7-57.5-99.7-287.6-230c-90.1-49.8-184-109.3-207-132.3c-72.9-65.2-118.9-172.5-118.9-279.9c0-249.2,153.4-394.9,400.7-379.6c122.7,7.7,139.9,15.3,523.4,243.5c419.8,247.3,508,283.7,625,251.1c59.4-15.3,302.9-147.6,498.4-270.3c51.8-32.6,72.9-95.8,46-145.7c-11.5-21.1-128.4-103.5-260.7-185.9c-258.8-159.1-297.1-207.1-232-279.9c17.3-19.2,170.6-115,337.4-210.9C3198-267.3,3336-347.8,3336-351.6s-136.1-86.3-301-184l-302.9-180.2h-134.2h-134.2l-406.4,243.5c-425.6,256.9-494.6,283.7-630.7,247.3c-189.8-51.8-314.4-207.1-314.4-393c0-209,57.5-279.9,366.2-433.3c381.5-191.7,383.4-187.9-210.9-515.7c-297.1-162.9-481.2-276.1-517.6-318.2c-126.5-145.7-130.4-394.9-5.8-536.8c47.9-53.7,201.3-130.4,306.7-149.5c118.9-23,233.9,23,663.3,268.4c232,132.3,444.8,241.5,469.7,241.5c84.4-1.9,97.8-47.9,97.8-327.8c0-299.1,21.1-385.3,115-485c164.9-174.5,456.3-117,580.9,115l51.8,93.9v485c1.9,649.9-9.6,626.9,410.2,868.4c333.6,191.7,324,197.5,337.4-247.3c9.6-306.7,13.4-341.2,46-366.2c51.8-38.3,80.5-24.9,362.3,157.2c134.2,88.2,264.6,161,289.5,161c80.5,0,88.2-28.8,88.2-348.9c0-260.7-5.8-314.4-36.4-375.7c-53.7-105.4-92-134.2-471.6-348.9c-458.2-260.7-463.9-262.6-517.6-371.9c-111.2-220.5-11.5-475.4,212.8-548.3c116.9-38.3,216.6-15.3,431.3,107.4c312.5,174.5,299.1,168.7,352.7,134.2l46-30.7l5.8-540.6l5.7-542.5l51.8-88.2c76.7-130.4,222.4-218.6,360.4-218.6c138,0,283.7,88.2,360.4,218.6l51.8,88.2l5.8,542.5l5.8,540.6l46,30.7c53.7,34.5,42.2,40.3,352.7-136.1c164.9-92,218.5-115,308.6-120.8c226.2-17.3,383.4,138,383.4,373.8c0,105.4-49.8,226.2-120.8,289.5c-26.8,24.9-222.4,145.7-437.1,268.4c-278,161-404.5,245.4-446.7,297.1l-59.4,74.8l-5.7,325.9c-7.7,348.9,0,379.6,86.3,379.6c26.8,0,147.6-61.4,268.4-136.1c262.6-164.9,318.2-187.9,356.6-153.4c23,17.2,30.7,86.3,36.4,325.9c5.8,320.2,19.2,366.2,99.7,366.2c21.1,0,162.9-70.9,316.3-157.2c214.7-124.6,287.5-176.4,325.9-233.9l49.8-74.8l9.6-519.5c9.6-494.6,11.5-523.4,53.7-600c143.8-270.3,550.2-256.9,676.7,23c28.8,61.3,36.4,126.5,36.4,335.5c0,279.9,19.2,345.1,99.7,345.1c23,0,222.4-105.4,444.8-233.9c387.2-224.3,410.2-233.9,531-241.5c299.1-19.2,506.1,186,467.8,465.8c-24.9,193.6-63.3,232-513.8,500.4c-222.4,134.2-421.7,256.9-440.9,272.2c-23,21.1-32.6,51.8-28.8,88.2c5.8,53.7,26.8,70.9,214.7,178.3c113.1,65.2,224.3,134.2,245.4,153.3c147.6,132.3,147.6,414.1,0,567.4c-76.7,80.5-143.8,109.3-256.9,109.3c-93.9,0-130.4-17.2-511.9-230c-431.3-241.5-521.4-279.9-632.6-258.8c-76.7,13.4-559.8,262.6-596.2,306.7c-53.7,65.2-7.7,113.1,258.8,268.4C7187.4-56.4,7310,26,7315.8,45.2c21.1,70.9-19.2,113.1-262.6,264.5c-260.7,164.9-299.1,209-245.4,287.6c15.4,21.1,141.9,111.2,283.7,201.3c243.4,155.3,262.6,162.9,364.2,162.9c103.5,0,122.7-9.6,527.2-249.2c230-136.1,450.5-256.9,490.8-268.4c128.4-34.5,260.7,9.6,360.4,122.7c67.1,76.7,90.1,162.9,76.7,299.1c-15.3,161-76.7,228.1-341.2,377.7c-128.4,70.9-241.6,145.7-253.1,166.8c-38.3,72.9,11.5,115,437.1,356.6c475.4,270.3,548.3,331.6,582.8,485c61.4,272.2-139.9,531-414.1,531c-84.4,0-141.9-26.8-554-249.2c-253-136.1-479.3-249.2-502.3-249.2c-84.3,0-101.6,61.3-101.6,371.9c0,272.2-1.9,289.5-47.9,370c-69,116.9-172.5,166.8-345.1,166.8c-157.2,0-232-30.7-310.6-136.1l-53.7-69l-9.6-577c-11.5-732.3,11.5-680.5-410.3-912.5c-377.6-209-394.9-197.5-394.9,289.5c0,440.9,5.7,437.1-389.2,191.7c-120.8-74.8-241.5-136.1-268.4-136.1c-86.3,0-93.9,30.7-86.3,379.6l5.7,325.9l59.4,74.8c42.2,51.8,174.4,139.9,473.5,312.5c228.1,132.3,435.2,260.7,462,285.6c120.8,115,134.2,316.3,30.7,458.2c-93.9,130.4-162.9,166.8-316.3,166.8c-130.4,0-139.9-3.8-354.6-126.5c-272.2-155.3-281.8-159.1-337.4-122.7c-44.1,28.8-44.1,28.8-49.9,569.4l-5.8,542.5l-51.8,88.2c-69,116.9-216.6,212.8-337.4,220.5C4977,5021.8,4923.3,5019.9,4908,5014.2z"/></g></g>
</svg>